<mxfile host="app.diagrams.net" agent="Mozilla/5.0 (Macintosh; Intel Mac OS X 10_15_7) AppleWebKit/537.36 (KHTML, like Gecko) Chrome/135.0.0.0 Safari/537.36" version="26.2.14">
  <diagram name="Page-1" id="ynd1MY0VRIUaukxAgakF">
    <mxGraphModel dx="2981" dy="2375" grid="1" gridSize="10" guides="1" tooltips="1" connect="1" arrows="1" fold="1" page="1" pageScale="1" pageWidth="827" pageHeight="1169" math="0" shadow="0">
      <root>
        <mxCell id="0" />
        <mxCell id="1" parent="0" />
        <mxCell id="_Stk8SWmFCRiMSyl7gKp-66" value="" style="rounded=0;whiteSpace=wrap;html=1;" vertex="1" parent="1">
          <mxGeometry x="-10" y="-600" width="1980" height="1580" as="geometry" />
        </mxCell>
        <mxCell id="_Stk8SWmFCRiMSyl7gKp-11" style="edgeStyle=orthogonalEdgeStyle;rounded=0;orthogonalLoop=1;jettySize=auto;html=1;exitX=0.5;exitY=1;exitDx=0;exitDy=0;entryX=0;entryY=0.5;entryDx=0;entryDy=0;" edge="1" parent="1" source="_Stk8SWmFCRiMSyl7gKp-2" target="_Stk8SWmFCRiMSyl7gKp-7">
          <mxGeometry relative="1" as="geometry" />
        </mxCell>
        <mxCell id="_Stk8SWmFCRiMSyl7gKp-2" value="Experiment&lt;div&gt;- file list: List&amp;lt;String&amp;gt;&lt;/div&gt;&lt;div&gt;- name: String&lt;/div&gt;&lt;div&gt;- RPUs: Hash&amp;lt;fluo, val&amp;gt;&lt;/div&gt;&lt;div&gt;- time_step: float&lt;/div&gt;&lt;div&gt;&lt;br&gt;&lt;/div&gt;&lt;div&gt;check for nd2 files shape&lt;/div&gt;" style="rounded=0;whiteSpace=wrap;html=1;" vertex="1" parent="1">
          <mxGeometry x="40" y="40" width="160" height="180" as="geometry" />
        </mxCell>
        <mxCell id="_Stk8SWmFCRiMSyl7gKp-6" value="" style="edgeStyle=orthogonalEdgeStyle;rounded=0;orthogonalLoop=1;jettySize=auto;html=1;" edge="1" parent="1" source="_Stk8SWmFCRiMSyl7gKp-3" target="_Stk8SWmFCRiMSyl7gKp-5">
          <mxGeometry relative="1" as="geometry" />
        </mxCell>
        <mxCell id="_Stk8SWmFCRiMSyl7gKp-53" style="edgeStyle=orthogonalEdgeStyle;rounded=0;orthogonalLoop=1;jettySize=auto;html=1;exitX=0.5;exitY=1;exitDx=0;exitDy=0;entryX=0;entryY=0.5;entryDx=0;entryDy=0;" edge="1" parent="1" source="_Stk8SWmFCRiMSyl7gKp-7" target="_Stk8SWmFCRiMSyl7gKp-12">
          <mxGeometry relative="1" as="geometry" />
        </mxCell>
        <mxCell id="_Stk8SWmFCRiMSyl7gKp-51" style="edgeStyle=orthogonalEdgeStyle;rounded=0;orthogonalLoop=1;jettySize=auto;html=1;exitX=0.5;exitY=1;exitDx=0;exitDy=0;entryX=0.5;entryY=0;entryDx=0;entryDy=0;" edge="1" parent="1" source="_Stk8SWmFCRiMSyl7gKp-12" target="_Stk8SWmFCRiMSyl7gKp-23">
          <mxGeometry relative="1" as="geometry" />
        </mxCell>
        <mxCell id="_Stk8SWmFCRiMSyl7gKp-57" style="edgeStyle=orthogonalEdgeStyle;rounded=0;orthogonalLoop=1;jettySize=auto;html=1;exitX=1;exitY=0.25;exitDx=0;exitDy=0;entryX=1;entryY=0.5;entryDx=0;entryDy=0;" edge="1" parent="1" source="_Stk8SWmFCRiMSyl7gKp-12" target="_Stk8SWmFCRiMSyl7gKp-56">
          <mxGeometry relative="1" as="geometry" />
        </mxCell>
        <mxCell id="_Stk8SWmFCRiMSyl7gKp-12" value="Metrics Manager&lt;div&gt;&lt;br&gt;&lt;/div&gt;&lt;div&gt;transform a segmentation + fluorescence into a structured representation of cells/frames&lt;/div&gt;" style="whiteSpace=wrap;html=1;dashed=1;" vertex="1" parent="1">
          <mxGeometry x="520" y="310" width="538" height="260" as="geometry" />
        </mxCell>
        <mxCell id="_Stk8SWmFCRiMSyl7gKp-23" value="AllCells" style="shape=table;startSize=30;container=1;collapsible=0;childLayout=tableLayout;strokeColor=default;fontSize=16;" vertex="1" parent="1">
          <mxGeometry x="270" y="620" width="776" height="150" as="geometry" />
        </mxCell>
        <mxCell id="_Stk8SWmFCRiMSyl7gKp-24" value="" style="shape=tableRow;horizontal=0;startSize=0;swimlaneHead=0;swimlaneBody=0;strokeColor=inherit;top=0;left=0;bottom=0;right=0;collapsible=0;dropTarget=0;fillColor=none;points=[[0,0.5],[1,0.5]];portConstraint=eastwest;fontSize=16;" vertex="1" parent="_Stk8SWmFCRiMSyl7gKp-23">
          <mxGeometry y="30" width="776" height="40" as="geometry" />
        </mxCell>
        <mxCell id="_Stk8SWmFCRiMSyl7gKp-25" value="time" style="shape=partialRectangle;html=1;whiteSpace=wrap;connectable=0;strokeColor=inherit;overflow=hidden;fillColor=none;top=0;left=0;bottom=0;right=0;pointerEvents=1;fontSize=16;" vertex="1" parent="_Stk8SWmFCRiMSyl7gKp-24">
          <mxGeometry width="85" height="40" as="geometry">
            <mxRectangle width="85" height="40" as="alternateBounds" />
          </mxGeometry>
        </mxCell>
        <mxCell id="_Stk8SWmFCRiMSyl7gKp-26" value="position" style="shape=partialRectangle;html=1;whiteSpace=wrap;connectable=0;strokeColor=inherit;overflow=hidden;fillColor=none;top=0;left=0;bottom=0;right=0;pointerEvents=1;fontSize=16;" vertex="1" parent="_Stk8SWmFCRiMSyl7gKp-24">
          <mxGeometry x="85" width="85" height="40" as="geometry">
            <mxRectangle width="85" height="40" as="alternateBounds" />
          </mxGeometry>
        </mxCell>
        <mxCell id="_Stk8SWmFCRiMSyl7gKp-27" value="cell_id" style="shape=partialRectangle;html=1;whiteSpace=wrap;connectable=0;strokeColor=inherit;overflow=hidden;fillColor=none;top=0;left=0;bottom=0;right=0;pointerEvents=1;fontSize=16;" vertex="1" parent="_Stk8SWmFCRiMSyl7gKp-24">
          <mxGeometry x="170" width="101" height="40" as="geometry">
            <mxRectangle width="101" height="40" as="alternateBounds" />
          </mxGeometry>
        </mxCell>
        <mxCell id="_Stk8SWmFCRiMSyl7gKp-36" value="track_id" style="shape=partialRectangle;html=1;whiteSpace=wrap;connectable=0;strokeColor=inherit;overflow=hidden;fillColor=none;top=0;left=0;bottom=0;right=0;pointerEvents=1;fontSize=16;" vertex="1" parent="_Stk8SWmFCRiMSyl7gKp-24">
          <mxGeometry x="271" width="101" height="40" as="geometry">
            <mxRectangle width="101" height="40" as="alternateBounds" />
          </mxGeometry>
        </mxCell>
        <mxCell id="_Stk8SWmFCRiMSyl7gKp-39" value="area" style="shape=partialRectangle;html=1;whiteSpace=wrap;connectable=0;strokeColor=inherit;overflow=hidden;fillColor=none;top=0;left=0;bottom=0;right=0;pointerEvents=1;fontSize=16;" vertex="1" parent="_Stk8SWmFCRiMSyl7gKp-24">
          <mxGeometry x="372" width="101" height="40" as="geometry">
            <mxRectangle width="101" height="40" as="alternateBounds" />
          </mxGeometry>
        </mxCell>
        <mxCell id="_Stk8SWmFCRiMSyl7gKp-42" value="solidity" style="shape=partialRectangle;html=1;whiteSpace=wrap;connectable=0;strokeColor=inherit;overflow=hidden;fillColor=none;top=0;left=0;bottom=0;right=0;pointerEvents=1;fontSize=16;" vertex="1" parent="_Stk8SWmFCRiMSyl7gKp-24">
          <mxGeometry x="473" width="101" height="40" as="geometry">
            <mxRectangle width="101" height="40" as="alternateBounds" />
          </mxGeometry>
        </mxCell>
        <mxCell id="_Stk8SWmFCRiMSyl7gKp-45" value="convex" style="shape=partialRectangle;html=1;whiteSpace=wrap;connectable=0;strokeColor=inherit;overflow=hidden;fillColor=none;top=0;left=0;bottom=0;right=0;pointerEvents=1;fontSize=16;" vertex="1" parent="_Stk8SWmFCRiMSyl7gKp-24">
          <mxGeometry x="574" width="101" height="40" as="geometry">
            <mxRectangle width="101" height="40" as="alternateBounds" />
          </mxGeometry>
        </mxCell>
        <mxCell id="_Stk8SWmFCRiMSyl7gKp-48" value="fluo" style="shape=partialRectangle;html=1;whiteSpace=wrap;connectable=0;strokeColor=inherit;overflow=hidden;fillColor=none;top=0;left=0;bottom=0;right=0;pointerEvents=1;fontSize=16;" vertex="1" parent="_Stk8SWmFCRiMSyl7gKp-24">
          <mxGeometry x="675" width="101" height="40" as="geometry">
            <mxRectangle width="101" height="40" as="alternateBounds" />
          </mxGeometry>
        </mxCell>
        <mxCell id="_Stk8SWmFCRiMSyl7gKp-28" value="" style="shape=tableRow;horizontal=0;startSize=0;swimlaneHead=0;swimlaneBody=0;strokeColor=inherit;top=0;left=0;bottom=0;right=0;collapsible=0;dropTarget=0;fillColor=none;points=[[0,0.5],[1,0.5]];portConstraint=eastwest;fontSize=16;" vertex="1" parent="_Stk8SWmFCRiMSyl7gKp-23">
          <mxGeometry y="70" width="776" height="40" as="geometry" />
        </mxCell>
        <mxCell id="_Stk8SWmFCRiMSyl7gKp-29" value="" style="shape=partialRectangle;html=1;whiteSpace=wrap;connectable=0;strokeColor=inherit;overflow=hidden;fillColor=none;top=0;left=0;bottom=0;right=0;pointerEvents=1;fontSize=16;" vertex="1" parent="_Stk8SWmFCRiMSyl7gKp-28">
          <mxGeometry width="85" height="40" as="geometry">
            <mxRectangle width="85" height="40" as="alternateBounds" />
          </mxGeometry>
        </mxCell>
        <mxCell id="_Stk8SWmFCRiMSyl7gKp-30" value="" style="shape=partialRectangle;html=1;whiteSpace=wrap;connectable=0;strokeColor=inherit;overflow=hidden;fillColor=none;top=0;left=0;bottom=0;right=0;pointerEvents=1;fontSize=16;" vertex="1" parent="_Stk8SWmFCRiMSyl7gKp-28">
          <mxGeometry x="85" width="85" height="40" as="geometry">
            <mxRectangle width="85" height="40" as="alternateBounds" />
          </mxGeometry>
        </mxCell>
        <mxCell id="_Stk8SWmFCRiMSyl7gKp-31" value="" style="shape=partialRectangle;html=1;whiteSpace=wrap;connectable=0;strokeColor=inherit;overflow=hidden;fillColor=none;top=0;left=0;bottom=0;right=0;pointerEvents=1;fontSize=16;" vertex="1" parent="_Stk8SWmFCRiMSyl7gKp-28">
          <mxGeometry x="170" width="101" height="40" as="geometry">
            <mxRectangle width="101" height="40" as="alternateBounds" />
          </mxGeometry>
        </mxCell>
        <mxCell id="_Stk8SWmFCRiMSyl7gKp-37" style="shape=partialRectangle;html=1;whiteSpace=wrap;connectable=0;strokeColor=inherit;overflow=hidden;fillColor=none;top=0;left=0;bottom=0;right=0;pointerEvents=1;fontSize=16;" vertex="1" parent="_Stk8SWmFCRiMSyl7gKp-28">
          <mxGeometry x="271" width="101" height="40" as="geometry">
            <mxRectangle width="101" height="40" as="alternateBounds" />
          </mxGeometry>
        </mxCell>
        <mxCell id="_Stk8SWmFCRiMSyl7gKp-40" style="shape=partialRectangle;html=1;whiteSpace=wrap;connectable=0;strokeColor=inherit;overflow=hidden;fillColor=none;top=0;left=0;bottom=0;right=0;pointerEvents=1;fontSize=16;" vertex="1" parent="_Stk8SWmFCRiMSyl7gKp-28">
          <mxGeometry x="372" width="101" height="40" as="geometry">
            <mxRectangle width="101" height="40" as="alternateBounds" />
          </mxGeometry>
        </mxCell>
        <mxCell id="_Stk8SWmFCRiMSyl7gKp-43" style="shape=partialRectangle;html=1;whiteSpace=wrap;connectable=0;strokeColor=inherit;overflow=hidden;fillColor=none;top=0;left=0;bottom=0;right=0;pointerEvents=1;fontSize=16;" vertex="1" parent="_Stk8SWmFCRiMSyl7gKp-28">
          <mxGeometry x="473" width="101" height="40" as="geometry">
            <mxRectangle width="101" height="40" as="alternateBounds" />
          </mxGeometry>
        </mxCell>
        <mxCell id="_Stk8SWmFCRiMSyl7gKp-46" style="shape=partialRectangle;html=1;whiteSpace=wrap;connectable=0;strokeColor=inherit;overflow=hidden;fillColor=none;top=0;left=0;bottom=0;right=0;pointerEvents=1;fontSize=16;" vertex="1" parent="_Stk8SWmFCRiMSyl7gKp-28">
          <mxGeometry x="574" width="101" height="40" as="geometry">
            <mxRectangle width="101" height="40" as="alternateBounds" />
          </mxGeometry>
        </mxCell>
        <mxCell id="_Stk8SWmFCRiMSyl7gKp-49" style="shape=partialRectangle;html=1;whiteSpace=wrap;connectable=0;strokeColor=inherit;overflow=hidden;fillColor=none;top=0;left=0;bottom=0;right=0;pointerEvents=1;fontSize=16;" vertex="1" parent="_Stk8SWmFCRiMSyl7gKp-28">
          <mxGeometry x="675" width="101" height="40" as="geometry">
            <mxRectangle width="101" height="40" as="alternateBounds" />
          </mxGeometry>
        </mxCell>
        <mxCell id="_Stk8SWmFCRiMSyl7gKp-32" value="" style="shape=tableRow;horizontal=0;startSize=0;swimlaneHead=0;swimlaneBody=0;strokeColor=inherit;top=0;left=0;bottom=0;right=0;collapsible=0;dropTarget=0;fillColor=none;points=[[0,0.5],[1,0.5]];portConstraint=eastwest;fontSize=16;" vertex="1" parent="_Stk8SWmFCRiMSyl7gKp-23">
          <mxGeometry y="110" width="776" height="40" as="geometry" />
        </mxCell>
        <mxCell id="_Stk8SWmFCRiMSyl7gKp-33" value="" style="shape=partialRectangle;html=1;whiteSpace=wrap;connectable=0;strokeColor=inherit;overflow=hidden;fillColor=none;top=0;left=0;bottom=0;right=0;pointerEvents=1;fontSize=16;" vertex="1" parent="_Stk8SWmFCRiMSyl7gKp-32">
          <mxGeometry width="85" height="40" as="geometry">
            <mxRectangle width="85" height="40" as="alternateBounds" />
          </mxGeometry>
        </mxCell>
        <mxCell id="_Stk8SWmFCRiMSyl7gKp-34" value="" style="shape=partialRectangle;html=1;whiteSpace=wrap;connectable=0;strokeColor=inherit;overflow=hidden;fillColor=none;top=0;left=0;bottom=0;right=0;pointerEvents=1;fontSize=16;" vertex="1" parent="_Stk8SWmFCRiMSyl7gKp-32">
          <mxGeometry x="85" width="85" height="40" as="geometry">
            <mxRectangle width="85" height="40" as="alternateBounds" />
          </mxGeometry>
        </mxCell>
        <mxCell id="_Stk8SWmFCRiMSyl7gKp-35" value="" style="shape=partialRectangle;html=1;whiteSpace=wrap;connectable=0;strokeColor=inherit;overflow=hidden;fillColor=none;top=0;left=0;bottom=0;right=0;pointerEvents=1;fontSize=16;" vertex="1" parent="_Stk8SWmFCRiMSyl7gKp-32">
          <mxGeometry x="170" width="101" height="40" as="geometry">
            <mxRectangle width="101" height="40" as="alternateBounds" />
          </mxGeometry>
        </mxCell>
        <mxCell id="_Stk8SWmFCRiMSyl7gKp-38" style="shape=partialRectangle;html=1;whiteSpace=wrap;connectable=0;strokeColor=inherit;overflow=hidden;fillColor=none;top=0;left=0;bottom=0;right=0;pointerEvents=1;fontSize=16;" vertex="1" parent="_Stk8SWmFCRiMSyl7gKp-32">
          <mxGeometry x="271" width="101" height="40" as="geometry">
            <mxRectangle width="101" height="40" as="alternateBounds" />
          </mxGeometry>
        </mxCell>
        <mxCell id="_Stk8SWmFCRiMSyl7gKp-41" style="shape=partialRectangle;html=1;whiteSpace=wrap;connectable=0;strokeColor=inherit;overflow=hidden;fillColor=none;top=0;left=0;bottom=0;right=0;pointerEvents=1;fontSize=16;" vertex="1" parent="_Stk8SWmFCRiMSyl7gKp-32">
          <mxGeometry x="372" width="101" height="40" as="geometry">
            <mxRectangle width="101" height="40" as="alternateBounds" />
          </mxGeometry>
        </mxCell>
        <mxCell id="_Stk8SWmFCRiMSyl7gKp-44" style="shape=partialRectangle;html=1;whiteSpace=wrap;connectable=0;strokeColor=inherit;overflow=hidden;fillColor=none;top=0;left=0;bottom=0;right=0;pointerEvents=1;fontSize=16;" vertex="1" parent="_Stk8SWmFCRiMSyl7gKp-32">
          <mxGeometry x="473" width="101" height="40" as="geometry">
            <mxRectangle width="101" height="40" as="alternateBounds" />
          </mxGeometry>
        </mxCell>
        <mxCell id="_Stk8SWmFCRiMSyl7gKp-47" style="shape=partialRectangle;html=1;whiteSpace=wrap;connectable=0;strokeColor=inherit;overflow=hidden;fillColor=none;top=0;left=0;bottom=0;right=0;pointerEvents=1;fontSize=16;" vertex="1" parent="_Stk8SWmFCRiMSyl7gKp-32">
          <mxGeometry x="574" width="101" height="40" as="geometry">
            <mxRectangle width="101" height="40" as="alternateBounds" />
          </mxGeometry>
        </mxCell>
        <mxCell id="_Stk8SWmFCRiMSyl7gKp-50" style="shape=partialRectangle;html=1;whiteSpace=wrap;connectable=0;strokeColor=inherit;overflow=hidden;fillColor=none;top=0;left=0;bottom=0;right=0;pointerEvents=1;fontSize=16;" vertex="1" parent="_Stk8SWmFCRiMSyl7gKp-32">
          <mxGeometry x="675" width="101" height="40" as="geometry">
            <mxRectangle width="101" height="40" as="alternateBounds" />
          </mxGeometry>
        </mxCell>
        <mxCell id="_Stk8SWmFCRiMSyl7gKp-55" value="Labeled Segmentation&lt;div&gt;&lt;br&gt;&lt;/div&gt;&lt;div&gt;(each cell has an id)&lt;/div&gt;" style="whiteSpace=wrap;html=1;" vertex="1" parent="1">
          <mxGeometry x="869" y="210" width="140" height="70" as="geometry" />
        </mxCell>
        <mxCell id="_Stk8SWmFCRiMSyl7gKp-59" value="Fluoresce Plot" style="whiteSpace=wrap;html=1;" vertex="1" parent="1">
          <mxGeometry x="80" y="850" width="120" height="60" as="geometry" />
        </mxCell>
        <mxCell id="_Stk8SWmFCRiMSyl7gKp-60" style="edgeStyle=orthogonalEdgeStyle;rounded=0;orthogonalLoop=1;jettySize=auto;html=1;exitX=0.5;exitY=0;exitDx=0;exitDy=0;entryX=-0.001;entryY=0.093;entryDx=0;entryDy=0;entryPerimeter=0;" edge="1" parent="1" source="_Stk8SWmFCRiMSyl7gKp-59" target="_Stk8SWmFCRiMSyl7gKp-23">
          <mxGeometry relative="1" as="geometry" />
        </mxCell>
        <mxCell id="_Stk8SWmFCRiMSyl7gKp-61" value="Morphology Plot / Classifier" style="whiteSpace=wrap;html=1;" vertex="1" parent="1">
          <mxGeometry x="1100" y="840" width="120" height="60" as="geometry" />
        </mxCell>
        <mxCell id="_Stk8SWmFCRiMSyl7gKp-62" style="edgeStyle=orthogonalEdgeStyle;rounded=0;orthogonalLoop=1;jettySize=auto;html=1;exitX=0.5;exitY=0;exitDx=0;exitDy=0;entryX=1.001;entryY=0.092;entryDx=0;entryDy=0;entryPerimeter=0;" edge="1" parent="1" source="_Stk8SWmFCRiMSyl7gKp-61" target="_Stk8SWmFCRiMSyl7gKp-23">
          <mxGeometry relative="1" as="geometry" />
        </mxCell>
        <mxCell id="_Stk8SWmFCRiMSyl7gKp-65" style="edgeStyle=orthogonalEdgeStyle;rounded=0;orthogonalLoop=1;jettySize=auto;html=1;exitX=0;exitY=0.5;exitDx=0;exitDy=0;entryX=0.75;entryY=0;entryDx=0;entryDy=0;" edge="1" parent="1" source="_Stk8SWmFCRiMSyl7gKp-63" target="_Stk8SWmFCRiMSyl7gKp-23">
          <mxGeometry relative="1" as="geometry" />
        </mxCell>
        <mxCell id="_Stk8SWmFCRiMSyl7gKp-63" value="Tracking" style="whiteSpace=wrap;html=1;" vertex="1" parent="1">
          <mxGeometry x="1680" y="610" width="120" height="60" as="geometry" />
        </mxCell>
        <mxCell id="_Stk8SWmFCRiMSyl7gKp-67" value="File 0 (30 frames)&lt;div&gt;File 1(20 frames)&lt;/div&gt;&lt;div&gt;File 2 (25 frames)&lt;br&gt;&lt;div&gt;&lt;br&gt;&lt;/div&gt;&lt;/div&gt;" style="text;html=1;align=center;verticalAlign=middle;resizable=0;points=[];autosize=1;strokeColor=none;fillColor=none;" vertex="1" parent="1">
          <mxGeometry x="-560" y="28" width="120" height="70" as="geometry" />
        </mxCell>
        <mxCell id="_Stk8SWmFCRiMSyl7gKp-68" value="75 images&lt;div&gt;&lt;br&gt;&lt;/div&gt;&lt;div&gt;(0, 29) -&amp;gt; File 0 (offset 0)&lt;/div&gt;&lt;div&gt;(30, 49) -&amp;gt; File 1 (offset - 30)&lt;/div&gt;&lt;div&gt;(50, 74) -&amp;gt; File 2 (offset - 50)&lt;/div&gt;" style="rounded=0;whiteSpace=wrap;html=1;" vertex="1" parent="1">
          <mxGeometry x="-390" y="-20" width="230" height="210" as="geometry" />
        </mxCell>
        <mxCell id="_Stk8SWmFCRiMSyl7gKp-75" value="&lt;font style=&quot;font-size: 26px;&quot;&gt;Image Manager&lt;/font&gt;" style="whiteSpace=wrap;html=1;verticalAlign=top;" vertex="1" parent="1">
          <mxGeometry x="220" y="-500" width="630" height="780" as="geometry" />
        </mxCell>
        <mxCell id="_Stk8SWmFCRiMSyl7gKp-70" value="Image Alignment&lt;div&gt;Needs to store the offset (x, y) to map all the frames of a time series to the initial position&lt;/div&gt;" style="whiteSpace=wrap;html=1;" vertex="1" parent="1">
          <mxGeometry x="296" y="-350" width="204" height="230" as="geometry" />
        </mxCell>
        <mxCell id="_Stk8SWmFCRiMSyl7gKp-74" style="edgeStyle=orthogonalEdgeStyle;rounded=0;orthogonalLoop=1;jettySize=auto;html=1;exitX=0.5;exitY=1;exitDx=0;exitDy=0;entryX=0.5;entryY=0;entryDx=0;entryDy=0;" edge="1" parent="1" source="_Stk8SWmFCRiMSyl7gKp-73" target="_Stk8SWmFCRiMSyl7gKp-5">
          <mxGeometry relative="1" as="geometry" />
        </mxCell>
        <mxCell id="_Stk8SWmFCRiMSyl7gKp-73" value="ROI&lt;div&gt;&lt;br&gt;&lt;/div&gt;&lt;div&gt;Hash&amp;lt;P, polygon&amp;gt;&lt;/div&gt;&lt;div&gt;&lt;br&gt;&lt;/div&gt;&lt;div&gt;stores the pixels that are valid in a time frame&lt;/div&gt;" style="whiteSpace=wrap;html=1;" vertex="1" parent="1">
          <mxGeometry x="550" y="-330" width="270" height="190" as="geometry" />
        </mxCell>
        <mxCell id="_Stk8SWmFCRiMSyl7gKp-3" value="Image Data / TimeLapseData&lt;div&gt;&lt;br&gt;&lt;div&gt;&lt;u&gt;serves images&lt;/u&gt;&lt;/div&gt;&lt;div&gt;&lt;u&gt;&lt;br&gt;&lt;/u&gt;&lt;/div&gt;&lt;div&gt;- data&lt;/div&gt;&lt;div&gt;- shape (t, p, w, h, c)&lt;br&gt;&lt;div&gt;&lt;br&gt;&lt;/div&gt;&lt;div&gt;timelapsedata[time, position, channel]&lt;/div&gt;&lt;/div&gt;&lt;/div&gt;&lt;div&gt;&lt;br&gt;&lt;/div&gt;&lt;div&gt;serves either aligned or unaligned frames&lt;/div&gt;" style="rounded=0;whiteSpace=wrap;html=1;" vertex="1" parent="1">
          <mxGeometry x="260" y="20" width="240" height="220" as="geometry" />
        </mxCell>
        <mxCell id="_Stk8SWmFCRiMSyl7gKp-5" value="SegmentationManager&lt;div&gt;&lt;br&gt;&lt;/div&gt;&lt;div&gt;- choose a model&lt;/div&gt;&lt;div&gt;- get the segmentation for 1 image&lt;/div&gt;&lt;div&gt;&lt;br&gt;&lt;/div&gt;&lt;div&gt;this can be cached, etc&lt;/div&gt;" style="rounded=0;whiteSpace=wrap;html=1;" vertex="1" parent="1">
          <mxGeometry x="657" y="40" width="170" height="180" as="geometry" />
        </mxCell>
        <mxCell id="_Stk8SWmFCRiMSyl7gKp-4" value="" style="edgeStyle=orthogonalEdgeStyle;rounded=0;orthogonalLoop=1;jettySize=auto;html=1;" edge="1" parent="1" source="_Stk8SWmFCRiMSyl7gKp-2" target="_Stk8SWmFCRiMSyl7gKp-3">
          <mxGeometry relative="1" as="geometry" />
        </mxCell>
        <mxCell id="_Stk8SWmFCRiMSyl7gKp-10" style="edgeStyle=orthogonalEdgeStyle;rounded=0;orthogonalLoop=1;jettySize=auto;html=1;exitX=0.5;exitY=1;exitDx=0;exitDy=0;entryX=0;entryY=0.25;entryDx=0;entryDy=0;" edge="1" parent="1" source="_Stk8SWmFCRiMSyl7gKp-3" target="_Stk8SWmFCRiMSyl7gKp-7">
          <mxGeometry relative="1" as="geometry">
            <Array as="points">
              <mxPoint x="380" y="325" />
              <mxPoint x="200" y="325" />
              <mxPoint x="200" y="425" />
            </Array>
          </mxGeometry>
        </mxCell>
        <mxCell id="_Stk8SWmFCRiMSyl7gKp-69" style="edgeStyle=orthogonalEdgeStyle;rounded=0;orthogonalLoop=1;jettySize=auto;html=1;exitX=0.25;exitY=0;exitDx=0;exitDy=0;entryX=0.5;entryY=0;entryDx=0;entryDy=0;" edge="1" parent="1" source="_Stk8SWmFCRiMSyl7gKp-3" target="_Stk8SWmFCRiMSyl7gKp-68">
          <mxGeometry relative="1" as="geometry" />
        </mxCell>
        <mxCell id="_Stk8SWmFCRiMSyl7gKp-72" style="edgeStyle=orthogonalEdgeStyle;rounded=0;orthogonalLoop=1;jettySize=auto;html=1;exitX=0.75;exitY=0;exitDx=0;exitDy=0;entryX=0.25;entryY=1;entryDx=0;entryDy=0;" edge="1" parent="1" source="_Stk8SWmFCRiMSyl7gKp-3" target="_Stk8SWmFCRiMSyl7gKp-70">
          <mxGeometry relative="1" as="geometry" />
        </mxCell>
        <mxCell id="_Stk8SWmFCRiMSyl7gKp-52" style="edgeStyle=orthogonalEdgeStyle;rounded=0;orthogonalLoop=1;jettySize=auto;html=1;exitX=1;exitY=0.5;exitDx=0;exitDy=0;entryX=0.5;entryY=0;entryDx=0;entryDy=0;" edge="1" parent="1" source="_Stk8SWmFCRiMSyl7gKp-5" target="_Stk8SWmFCRiMSyl7gKp-12">
          <mxGeometry relative="1" as="geometry" />
        </mxCell>
        <mxCell id="_Stk8SWmFCRiMSyl7gKp-64" style="edgeStyle=orthogonalEdgeStyle;rounded=0;orthogonalLoop=1;jettySize=auto;html=1;exitX=0.5;exitY=0;exitDx=0;exitDy=0;entryX=1;entryY=0.25;entryDx=0;entryDy=0;" edge="1" parent="1" source="_Stk8SWmFCRiMSyl7gKp-63" target="_Stk8SWmFCRiMSyl7gKp-5">
          <mxGeometry relative="1" as="geometry" />
        </mxCell>
        <mxCell id="_Stk8SWmFCRiMSyl7gKp-7" value="FluorescenceManager" style="rounded=0;whiteSpace=wrap;html=1;" vertex="1" parent="1">
          <mxGeometry x="709" y="340" width="160" height="60" as="geometry" />
        </mxCell>
        <mxCell id="_Stk8SWmFCRiMSyl7gKp-56" value="Morphology analyzer&lt;div&gt;responsible for computing area, convex ratio, aspect ration, orientation&lt;/div&gt;" style="whiteSpace=wrap;html=1;" vertex="1" parent="1">
          <mxGeometry x="886" y="330" width="160" height="110" as="geometry" />
        </mxCell>
      </root>
    </mxGraphModel>
  </diagram>
</mxfile>
